<mxfile host="app.diagrams.net" agent="Mozilla/5.0 (Windows NT 10.0; Win64; x64) AppleWebKit/537.36 (KHTML, like Gecko) Chrome/131.0.0.0 Safari/537.36" version="26.0.2">
  <diagram name="Page-1" id="zOEEpCLVx3BSE4MT3N1Z">
    <mxGraphModel dx="941" dy="744" grid="1" gridSize="10" guides="1" tooltips="1" connect="1" arrows="1" fold="1" page="1" pageScale="1" pageWidth="827" pageHeight="1169" math="0" shadow="0">
      <root>
        <mxCell id="0" />
        <mxCell id="1" parent="0" />
        <mxCell id="_eB5BenDUcCew26t4jTj-180" value="" style="shape=umlLifeline;perimeter=lifelinePerimeter;whiteSpace=wrap;html=1;container=1;dropTarget=0;collapsible=0;recursiveResize=0;outlineConnect=0;portConstraint=eastwest;newEdgeStyle={&quot;curved&quot;:0,&quot;rounded&quot;:0};participant=umlActor;" vertex="1" parent="1">
          <mxGeometry x="50" y="130" width="20" height="440" as="geometry" />
        </mxCell>
        <mxCell id="_eB5BenDUcCew26t4jTj-181" value="" style="html=1;points=[[0,0,0,0,5],[0,1,0,0,-5],[1,0,0,0,5],[1,1,0,0,-5]];perimeter=orthogonalPerimeter;outlineConnect=0;targetShapes=umlLifeline;portConstraint=eastwest;newEdgeStyle={&quot;curved&quot;:0,&quot;rounded&quot;:0};" vertex="1" parent="_eB5BenDUcCew26t4jTj-180">
          <mxGeometry x="5" y="50" width="10" height="360" as="geometry" />
        </mxCell>
        <mxCell id="_eB5BenDUcCew26t4jTj-182" value="Moderatore" style="text;html=1;align=center;verticalAlign=middle;whiteSpace=wrap;rounded=0;" vertex="1" parent="1">
          <mxGeometry x="30" y="100" width="60" height="30" as="geometry" />
        </mxCell>
        <mxCell id="_eB5BenDUcCew26t4jTj-202" value="clickOnModeratorPage()" style="html=1;verticalAlign=bottom;endArrow=block;curved=0;rounded=0;exitX=0.8;exitY=0.166;exitDx=0;exitDy=0;exitPerimeter=0;" edge="1" parent="1" target="_eB5BenDUcCew26t4jTj-204">
          <mxGeometry width="80" relative="1" as="geometry">
            <mxPoint x="64" y="239.76" as="sourcePoint" />
            <mxPoint x="220" y="240" as="targetPoint" />
          </mxGeometry>
        </mxCell>
        <mxCell id="_eB5BenDUcCew26t4jTj-203" value=":NavBar_Boundary" style="shape=umlLifeline;perimeter=lifelinePerimeter;whiteSpace=wrap;html=1;container=1;dropTarget=0;collapsible=0;recursiveResize=0;outlineConnect=0;portConstraint=eastwest;newEdgeStyle={&quot;curved&quot;:0,&quot;rounded&quot;:0};" vertex="1" parent="1">
          <mxGeometry x="180" y="130" width="110" height="300" as="geometry" />
        </mxCell>
        <mxCell id="_eB5BenDUcCew26t4jTj-204" value="" style="html=1;points=[[0,0,0,0,5],[0,1,0,0,-5],[1,0,0,0,5],[1,1,0,0,-5]];perimeter=orthogonalPerimeter;outlineConnect=0;targetShapes=umlLifeline;portConstraint=eastwest;newEdgeStyle={&quot;curved&quot;:0,&quot;rounded&quot;:0};" vertex="1" parent="_eB5BenDUcCew26t4jTj-203">
          <mxGeometry x="50" y="80" width="10" height="130" as="geometry" />
        </mxCell>
        <mxCell id="_eB5BenDUcCew26t4jTj-220" value="" style="shape=umlDestroy;whiteSpace=wrap;html=1;strokeWidth=3;targetShapes=umlLifeline;" vertex="1" parent="_eB5BenDUcCew26t4jTj-203">
          <mxGeometry x="40" y="190" width="30" height="30" as="geometry" />
        </mxCell>
        <mxCell id="_eB5BenDUcCew26t4jTj-205" value="accessModeratorPage(user)" style="html=1;verticalAlign=bottom;endArrow=block;curved=0;rounded=0;" edge="1" parent="1" target="_eB5BenDUcCew26t4jTj-207">
          <mxGeometry width="80" relative="1" as="geometry">
            <mxPoint x="240" y="260" as="sourcePoint" />
            <mxPoint x="380" y="260" as="targetPoint" />
          </mxGeometry>
        </mxCell>
        <mxCell id="_eB5BenDUcCew26t4jTj-206" value=":Moderator_Control" style="shape=umlLifeline;perimeter=lifelinePerimeter;whiteSpace=wrap;html=1;container=1;dropTarget=0;collapsible=0;recursiveResize=0;outlineConnect=0;portConstraint=eastwest;newEdgeStyle={&quot;curved&quot;:0,&quot;rounded&quot;:0};" vertex="1" parent="1">
          <mxGeometry x="330" y="130" width="120" height="300" as="geometry" />
        </mxCell>
        <mxCell id="_eB5BenDUcCew26t4jTj-207" value="" style="html=1;points=[[0,0,0,0,5],[0,1,0,0,-5],[1,0,0,0,5],[1,1,0,0,-5]];perimeter=orthogonalPerimeter;outlineConnect=0;targetShapes=umlLifeline;portConstraint=eastwest;newEdgeStyle={&quot;curved&quot;:0,&quot;rounded&quot;:0};" vertex="1" parent="_eB5BenDUcCew26t4jTj-206">
          <mxGeometry x="55" y="100" width="10" height="110" as="geometry" />
        </mxCell>
        <mxCell id="_eB5BenDUcCew26t4jTj-213" value="verificaPermessi(user)" style="html=1;align=left;spacingLeft=2;endArrow=block;rounded=0;edgeStyle=orthogonalEdgeStyle;curved=0;rounded=0;" edge="1" target="_eB5BenDUcCew26t4jTj-207" parent="_eB5BenDUcCew26t4jTj-206">
          <mxGeometry relative="1" as="geometry">
            <mxPoint x="65" y="130" as="sourcePoint" />
            <Array as="points">
              <mxPoint x="95" y="130" />
              <mxPoint x="95" y="160" />
            </Array>
            <mxPoint x="70" y="160" as="targetPoint" />
          </mxGeometry>
        </mxCell>
        <mxCell id="_eB5BenDUcCew26t4jTj-216" value="createErrorPage(error)" style="html=1;verticalAlign=bottom;endArrow=block;curved=0;rounded=0;" edge="1" parent="1" source="_eB5BenDUcCew26t4jTj-207">
          <mxGeometry width="80" relative="1" as="geometry">
            <mxPoint x="400" y="320" as="sourcePoint" />
            <mxPoint x="560" y="320" as="targetPoint" />
          </mxGeometry>
        </mxCell>
        <mxCell id="_eB5BenDUcCew26t4jTj-218" value=":Error_Page" style="shape=umlLifeline;perimeter=lifelinePerimeter;whiteSpace=wrap;html=1;container=1;dropTarget=0;collapsible=0;recursiveResize=0;outlineConnect=0;portConstraint=eastwest;newEdgeStyle={&quot;curved&quot;:0,&quot;rounded&quot;:0};" vertex="1" parent="1">
          <mxGeometry x="562" y="310" width="100" height="300" as="geometry" />
        </mxCell>
        <mxCell id="_eB5BenDUcCew26t4jTj-219" value="" style="html=1;points=[[0,0,0,0,5],[0,1,0,0,-5],[1,0,0,0,5],[1,1,0,0,-5]];perimeter=orthogonalPerimeter;outlineConnect=0;targetShapes=umlLifeline;portConstraint=eastwest;newEdgeStyle={&quot;curved&quot;:0,&quot;rounded&quot;:0};" vertex="1" parent="_eB5BenDUcCew26t4jTj-218">
          <mxGeometry x="45" y="50" width="10" height="80" as="geometry" />
        </mxCell>
      </root>
    </mxGraphModel>
  </diagram>
</mxfile>
